<?xml version="1.0" encoding="UTF-8"?>
<svg version="1.1" viewBox="0 0 2048 774" width="365" height="138" xmlns="http://www.w3.org/2000/svg">
<path transform="translate(1256,423)" d="m0 0h101l14 2 15 5 11 7 7 6 7 11 3 9 1 5v13l-2 9-7 13-10 10-8 5 12 5 10 9 6 9 5 12 2 9v10l-2 11-7 14-8 9-13 9-14 5-11 2-13 1h-99l-1-80v-111zm40 36 1 44h45l14-2 10-5 5-7 1-3v-10l-5-10-5-4-5-2-9-1zm1 79v50h47l15-2 9-4 8-7 3-5 1-9-4-11-7-6-9-4-14-2z" fill="#60AD4D"/>
<path transform="translate(1109,422)" d="m0 0h28l18 3 16 6 13 7 12 9 11 11 9 13 8 16 4 13 2 13v21l-4 18-5 13-8 14-9 11-10 10-13 9-16 8-12 4-17 3-10 1h-10l-21-3-18-6-15-8-13-10-9-9-10-14-8-16-5-17-1-6v-27l3-14 6-16 8-13 8-10 12-12 16-10 16-7 17-4zm10 37-13 2-13 5-11 7-12 12-6 10-5 14-1 6v13l3 15 8 16 7 8 7 7 14 8 12 4 16 2 16-3 12-5 12-8 10-10 8-14 4-16v-17l-4-16-8-14-9-10-8-6-12-6-11-3z" fill="#60AD4D"/>
<path transform="translate(1695,423)" d="m0 0h147l1 1v16l-1 19h-106v45h95l1 1v35l-2 1h-94l1 44 104 1 5 1v35l-113 1h-36l-3-2v-182z" fill="#5EAB4E"/>
<path transform="translate(447,421)" d="m0 0h23l15 2 19 5 19 8 10 7-1 5-15 30-6-2-21-9-17-5-14-2h-11l-10 3-6 4-3 7 1 6 6 8 9 6 18 7 26 8 16 8 10 6 8 7 7 11 4 11 1 5v17l-4 13-6 11-11 11-14 8-15 5-21 3h-16l-19-3-17-5-19-9-13-9-9-7 8-16 9-19 4 2 13 9 18 10 13 5 15 3h16l13-4 6-5 3-6v-8l-5-9-16-8-25-8-20-7-16-8-10-9-5-6-5-10-3-12v-14l3-12 5-10 7-9 12-9 12-6 16-4z" fill="#034E92"/>
<path transform="translate(945,422)" d="m0 0h46v200h-38l-1-82v-47h-2l-2 5-8 18-20 40-13 28-9 17-3 3h-23l-6-8-19-38-11-23-16-33-6-12v-3h39l4 5 10 21 10 19 5 10v2l3-1 14-29 15-30 11-23 12-25 7-13z" fill="#60AD4D"/>
<path transform="translate(1511,422)" d="m0 0h65l100 1v32l-1 4-3 1-57-1v162l-1 1-41 1-1-1v-163h-61z" fill="#60AC4E"/>
<path transform="translate(674,422)" d="m0 0h147l3 3 13 27 3 5v2l-62 1v161l-1 1h-42l-1-8v-154h-59l-2-2v-34z" fill="#034E92"/>
<path transform="translate(180,22)" d="m0 0 11 1 9 6 5 8 1 4v7l-5 12-12 21-14 24-16 28-17 29-15 26-16 28-10 17-9 15-7 8-7 3h-12l-8-4-7-8-2-5v-9l5-13 16-27 14-24 9-16 14-24 12-21 16-27 14-25 12-20 9-10 6-3z" fill="#03AAE2"/>
<path transform="translate(359,207)" d="m0 0h10l8 3 7 6 4 8v10l-8 17-10 17-16 28-30 52-14 24-16 28-16 27-6 9-5 5-5 2h-15l-9-5-4-5-3-8v-7l5-12 10-17 14-24 16-28 16-27 14-25 14-24 14-25 12-19 7-7z" fill="#60AD4D"/>
<path transform="translate(177,207)" d="m0 0h10l10 5 6 7 3 8-1 9-8 16-16 28-13 22-17 29-30 52-28 48-9 10-5 2-10 1-8-2-7-6-4-6-1-3v-10l5-12 9-15 15-26 14-24 16-28 15-26 14-24 13-23 14-23 8-7z" fill="#024E92"/>
<path transform="translate(1872,422)" d="m0 0h39l3 1v162h58l26 1 1 2-1 34-112 1-14-1z" fill="#60AD4D"/>
<path transform="translate(562,422)" d="m0 0h38l3 1v163h85v36h-126l-1-6z" fill="#014D92"/>
<path transform="translate(1452,422)" d="m0 0h32l9 1v199l-12 1h-30v-200z" fill="#61AD4E"/>
<path transform="translate(242,253)" d="m0 0h9l10 4 7 8 2 5v11l-6 10-6 5-5 2h-13l-8-5-6-9-2-5v-7l5-10 8-7z" fill="#60AD4D"/>
<path transform="translate(1011,688)" d="m0 0h20l9 4 4 6-1 5-6-1-8-4-4-1h-9l-9 4-5 6-3 8v9l3 8 4 5 8 4h12l9-3 7-3 2 2-1 6-8 5-9 3h-16l-10-5-7-7-5-10-1-3v-13l4-10 7-8 9-6z" fill="#085295"/>
<path transform="translate(809,686)" d="m0 0h8l1 1 1 24 8-6 6-2 10 1 5 3 5 6 1 3v34l-7 1-2-1-1-28-2-7-5-2-9 1-6 4-2 4-1 28-4 1-7-2v-61z" fill="#085295"/>
<path transform="translate(1301,702)" d="m0 0h16l8 5 5 7 2 7v8l-1 1h-32l-3 2 2 5 6 5 9 1 16-6 1 2-3 5-6 5-6 2h-15l-6-4-7-8-3-9v-7l3-10 5-6zm3 8-6 4-3 6v3l5 1h18l5-1-1-6-5-5-3-2z" fill="#0B5496"/>
<path transform="translate(1140,702)" d="m0 0h6l5 5v2l10-6h13l6 3 4 5 2 7v32l-2 1h-6l-2-2-1-29-3-6-2-1h-11l-6 4-1 2-1 10v21l-2 1-9-1-1-5v-40z" fill="#0E5697"/>
<path transform="translate(1215,702)" d="m0 0h8l3 7 5-4 5-2h14l6 3 4 8 1 8v28l-9 1-1-1-1-27-2-7-3-3h-11l-6 3-2 4-1 30-7 1-3-2-1-9v-37z" fill="#0F5798"/>
<path transform="translate(897,702)" d="m0 0h12l8 4 6 7 3 7v9l-1 1h-35l2 6 5 5 4 2 8-1 11-5 3 1-3 6-5 4-7 3h-14l-6-4-7-8-3-8v-10l5-10 7-6zm0 8-7 6-3 6 9 2 21-1-2-7-7-6z" fill="#0A5395"/>
<path transform="translate(1528,703)" d="m0 0h12l9 3 5 4 4 6 1 3v17l-4 6-8 7-7 2h-14l-8-4-6-7-3-7v-11l4-9 5-6 6-3zm0 8-7 6-2 5v8l3 8 5 4 9 2 8-4 4-5 1-2v-12l-4-6-6-4z" fill="#095295"/>
<path transform="translate(1081,703)" d="m0 0h15l8 3 7 7 3 7v13l-3 7-6 7-11 4h-13l-8-4-6-7-3-7v-13l5-9 7-6zm3 8-5 3-5 8-1 7 3 8 8 6 7 1 8-4 5-6 1-7-3-10-6-5-3-1z" fill="#095295"/>
<path transform="translate(1585,702)" d="m0 0h8l2 3v4l8-5 4-1h11l9 3 3 8 1 11v25l-2 1h-7l-1-1-1-31-2-6-10-1-8 3-3 4-1 4-1 27-1 1h-7l-2-2z" fill="#075194"/>
<path transform="translate(738,688)" d="m0 0h52l1 1v6l-2 1-19 1-1 53-1 1h-9l-1-1v-54h-16l-5-2v-5z" fill="#055094"/>
<path transform="translate(1373,702)" d="m0 0h9l8 2 5 3 1 7-4 1-10-3h-9l-5 3-4 5-1 9 3 8 4 3 9 2 10-3 2-1h6l-1 6-8 5-8 2h-10l-8-4-7-8-3-10 1-10 4-8 8-7z" fill="#0C5596"/>
<path transform="translate(1425,690)" d="m0 0h7l3 2v13h13l2 5-1 1-14 1v29h12l2 2-1 6-2 1h-16l-5-5-1-4-1-28-6-3 1-4 6-2v-10z" fill="#0C5596"/>
<path transform="translate(1475,706)" d="m0 0h8l1 1v41l-2 3h-7l-2-2v-23l1-19z" fill="#21639F"/>
<path transform="translate(1476,688)" d="m0 0 7 1 2 3-1 6-2 1h-6l-4-4 1-5z" fill="#195D9C"/>
<path transform="translate(1330,736)" d="m0 0" fill="#014D92"/>
</svg>
